<svg xmlns="http://www.w3.org/2000/svg" viewBox="0 0 540 420" width="540" height="420" role="img" aria-label="Skill Radar">
<style>text{font-family:'JetBrains Mono','SFMono-Regular',Consolas,'Courier New',monospace}</style>
<text x="270.0" y="30" text-anchor="middle" fill="#8b949e" style="font-size:14px;letter-spacing:2px">SKILL RADAR</text>
<polygon points="270.0,198.8 290.5,208.6 295.6,230.8 281.4,248.7 258.6,248.7 244.4,230.8 249.5,208.6" fill="none" stroke="#30363d" stroke-width="1"/>
<polygon points="270.0,172.5 311.0,192.3 321.2,236.7 292.8,272.3 247.2,272.3 218.8,236.7 229.0,192.3" fill="none" stroke="#30363d" stroke-width="1"/>
<polygon points="270.0,146.2 331.6,175.9 346.8,242.5 304.2,296.0 235.8,296.0 193.2,242.5 208.4,175.9" fill="none" stroke="#30363d" stroke-width="1"/>
<polygon points="270.0,120.0 352.1,159.5 372.4,248.4 315.6,319.6 224.4,319.6 167.6,248.4 187.9,159.5" fill="none" stroke="#30363d" stroke-width="1"/>
<line x1="270.0" y1="225" x2="270.0" y2="120.0" stroke="#30363d"/>
<line x1="270.0" y1="225" x2="352.1" y2="159.5" stroke="#30363d"/>
<line x1="270.0" y1="225" x2="372.4" y2="248.4" stroke="#30363d"/>
<line x1="270.0" y1="225" x2="315.6" y2="319.6" stroke="#30363d"/>
<line x1="270.0" y1="225" x2="224.4" y2="319.6" stroke="#30363d"/>
<line x1="270.0" y1="225" x2="167.6" y2="248.4" stroke="#30363d"/>
<line x1="270.0" y1="225" x2="187.9" y2="159.5" stroke="#30363d"/>
<polygon points="270.0,135.8 335.7,172.6 346.8,242.5 299.6,286.5 234.5,298.8 196.3,241.8 212.5,179.2" fill="#39ff14" fill-opacity="0.22" stroke="#39ff14" stroke-width="2"/>
<circle cx="270.0" cy="135.8" r="4" fill="#39ff14"/>
<text x="270.0" y="100.0" text-anchor="middle" dominant-baseline="middle" fill="#e6edf3" style="font-size:14px">Automatización n8n</text>
<circle cx="335.7" cy="172.6" r="4" fill="#39ff14"/>
<text x="367.7" y="147.1" text-anchor="start" dominant-baseline="middle" fill="#e6edf3" style="font-size:14px">APIs + IA</text>
<circle cx="346.8" cy="242.5" r="4" fill="#39ff14"/>
<text x="391.9" y="252.8" text-anchor="start" dominant-baseline="middle" fill="#e6edf3" style="font-size:14px">Python</text>
<circle cx="299.6" cy="286.5" r="4" fill="#39ff14"/>
<text x="324.2" y="337.6" text-anchor="start" dominant-baseline="middle" fill="#e6edf3" style="font-size:14px">SQL</text>
<circle cx="234.5" cy="298.8" r="4" fill="#39ff14"/>
<text x="215.8" y="337.6" text-anchor="end" dominant-baseline="middle" fill="#e6edf3" style="font-size:14px">Análisis de datos</text>
<circle cx="196.3" cy="241.8" r="4" fill="#39ff14"/>
<text x="148.1" y="252.8" text-anchor="end" dominant-baseline="middle" fill="#e6edf3" style="font-size:14px">Dashboards / BI</text>
<circle cx="212.5" cy="179.2" r="4" fill="#39ff14"/>
<text x="172.3" y="147.1" text-anchor="end" dominant-baseline="middle" fill="#e6edf3" style="font-size:14px">Web scraping</text>
</svg>